<svg xmlns="http://www.w3.org/2000/svg"
 width="950" height="790" viewBox="0 0 950 790"
 preserveAspectRatio="xMidYMid meet">
<g transform="translate(0.000000,790.000000) scale(0.100000,-0.100000)"
fill="currentColor" stroke="none">
<path d="M1795 7849 c-474 -79 -882 -461 -1010 -944 -46 -174 -47 -190 -54
-1150 -7 -907 -8 -921 -29 -978 -60 -162 -160 -284 -278 -339 -63 -29 -79 -32
-189 -36 -66 -2 -128 -9 -138 -14 -10 -5 -27 -24 -37 -41 -19 -30 -20 -53 -20
-377 0 -371 1 -375 53 -414 24 -18 47 -22 150 -26 113 -5 128 -8 189 -38 80
-39 178 -138 226 -229 18 -34 42 -97 53 -140 20 -75 21 -108 24 -978 2 -616 6
-921 14 -968 53 -316 167 -550 369 -759 193 -199 429 -326 685 -368 34 -5 160
-10 280 -10 241 0 263 5 292 60 14 26 15 77 13 356 l-3 326 -37 34 -38 34
-148 0 c-165 0 -225 11 -325 61 -83 42 -192 153 -234 240 -64 130 -63 109 -63
1031 0 545 -4 873 -11 940 -29 263 -143 508 -324 693 -49 51 -105 103 -124
117 l-33 25 33 21 c41 25 164 149 212 212 98 129 179 309 220 485 20 87 21
125 27 1010 6 1003 3 944 68 1069 69 132 176 224 315 271 67 22 92 25 219 25
165 0 201 11 230 70 16 31 18 70 18 343 0 338 -2 352 -60 382 -24 12 -71 15
-257 14 -125 -1 -250 -5 -278 -10z"/>
<path d="M7172 7840 c-18 -11 -37 -32 -42 -46 -6 -14 -10 -161 -10 -343 0
-311 0 -319 22 -346 36 -46 73 -55 231 -55 154 0 209 -10 302 -57 72 -37 183
-154 223 -236 62 -127 62 -115 62 -1067 0 -924 2 -956 51 -1115 67 -217 228
-459 389 -581 l50 -38 -38 -30 c-179 -146 -305 -325 -382 -541 -67 -189 -63
-129 -69 -1155 l-6 -935 -23 -65 c-37 -101 -76 -162 -151 -233 -76 -72 -167
-121 -250 -137 -29 -5 -114 -10 -188 -10 -145 0 -176 -8 -207 -54 -14 -22 -16
-66 -16 -357 l0 -331 34 -34 34 -34 230 0 c165 0 253 4 311 15 494 94 884 488
1003 1013 21 95 22 116 27 1042 l6 945 27 80 c57 166 159 295 284 356 63 31
78 34 189 39 134 6 165 18 184 72 7 20 11 155 11 372 0 320 -1 343 -20 373
-10 17 -27 36 -37 41 -10 5 -70 12 -133 14 -104 4 -123 7 -183 36 -37 17 -88
48 -113 68 -54 45 -134 162 -164 241 -48 127 -49 152 -50 1070 0 813 -1 867
-20 977 -80 472 -402 863 -825 1005 -147 49 -241 61 -489 61 -203 0 -224 -2
-254 -20z"/>
<path d="M4710 5790 c-197 -24 -377 -111 -521 -253 -91 -91 -156 -186 -274
-402 -176 -323 -404 -484 -683 -485 -119 -1 -290 -54 -397 -125 -133 -89 -222
-191 -327 -377 -82 -147 -210 -281 -338 -354 -110 -63 -161 -115 -190 -190
-56 -149 23 -326 177 -396 l48 -22 2545 -1 2545 0 61 28 c166 77 245 271 173
427 -35 75 -70 114 -150 166 -103 68 -214 192 -278 310 -136 250 -233 355
-403 434 -99 46 -157 59 -308 70 -338 23 -500 141 -720 530 -161 284 -259 406
-409 504 -160 107 -368 157 -551 136z"/>
<path d="M2723 2692 c-207 -72 -274 -328 -127 -491 26 -29 69 -62 102 -78 l57
-28 2005 0 c1948 0 2006 1 2054 19 63 24 130 86 164 151 23 43 27 62 27 140 0
75 -4 97 -23 133 -31 58 -88 114 -148 143 l-49 24 -2005 2 c-1904 2 -2008 2
-2057 -15z"/>
<path d="M3765 1626 c-27 -12 -71 -45 -96 -73 -60 -64 -83 -132 -77 -222 8
-108 61 -188 160 -242 l63 -34 945 0 945 0 52 24 c148 67 218 247 151 392 -33
73 -66 109 -130 144 l-53 30 -955 3 -955 2 -50 -24z"/>
</g>
</svg>
